<svg xmlns="http://www.w3.org/2000/svg" viewBox="0 0 400 260" width="400" height="260" role="img">
  <defs>
    <linearGradient id="g" x1="0" y1="0" x2="1" y2="1">
      <stop offset="0" stop-color="#115e59"/>
      <stop offset="1" stop-color="#14b8a6"/>
    </linearGradient>
  </defs>
  <rect width="400" height="260" fill="url(#g)"/>
  
  <g stroke="#ffffff" stroke-opacity="0.10" fill="none" stroke-width="2">
    <path d="M0 60 Q100 30 200 60 T400 60"/>
    <path d="M0 120 Q100 90 200 120 T400 120"/>
    <path d="M0 180 Q100 150 200 180 T400 180"/>
    <path d="M0 240 Q100 210 200 240 T400 240"/>
  </g>
  <g fill="none" stroke="#ffffff" stroke-width="7" stroke-linecap="round" stroke-linejoin="round">
    <rect x="150" y="92" width="100" height="115" rx="10"/>
    <path d="M168 92 v-14 h30 v14" stroke="#ffd0a3"/>
    <path d="M158 108 l84 84 M242 108 l-84 84" stroke="#ffd0a3"/>
    <line x1="150" y1="150" x2="250" y2="150"/>
  </g>
</svg>