<svg xmlns="http://www.w3.org/2000/svg" viewBox="0 0 400 260" width="400" height="260" role="img">
  <defs>
    <linearGradient id="g" x1="0" y1="0" x2="1" y2="1">
      <stop offset="0" stop-color="#713f12"/>
      <stop offset="1" stop-color="#a16207"/>
    </linearGradient>
  </defs>
  <rect width="400" height="260" fill="url(#g)"/>
  
  <g stroke="#ffffff" stroke-opacity="0.10" fill="none" stroke-width="2">
    <path d="M0 60 Q100 30 200 60 T400 60"/>
    <path d="M0 120 Q100 90 200 120 T400 120"/>
    <path d="M0 180 Q100 150 200 180 T400 180"/>
    <path d="M0 240 Q100 210 200 240 T400 240"/>
  </g>
  <g fill="none" stroke="#ffffff" stroke-width="7" stroke-linecap="round" stroke-linejoin="round">
    <g stroke="#ffd0a3">
    <rect x="140" y="86" width="22" height="14" rx="4"/><rect x="172" y="86" width="22" height="14" rx="4"/><rect x="204" y="86" width="22" height="14" rx="4"/><rect x="236" y="86" width="22" height="14" rx="4"/><rect x="140" y="116" width="22" height="14" rx="4"/><rect x="172" y="116" width="22" height="14" rx="4"/><rect x="204" y="116" width="22" height="14" rx="4"/><rect x="236" y="116" width="22" height="14" rx="4"/><rect x="140" y="146" width="22" height="14" rx="4"/><rect x="172" y="146" width="22" height="14" rx="4"/><rect x="204" y="146" width="22" height="14" rx="4"/><rect x="236" y="146" width="22" height="14" rx="4"/><rect x="140" y="176" width="22" height="14" rx="4"/><rect x="172" y="176" width="22" height="14" rx="4"/><rect x="204" y="176" width="22" height="14" rx="4"/><rect x="236" y="176" width="22" height="14" rx="4"/>
    </g>
    <rect x="176" y="150" width="70" height="60" rx="10"/>
    <path d="M176 168 h70"/>
  </g>
</svg>